<svg width="24" height="24" viewBox="0 0 24 24" fill="none" xmlns="http://www.w3.org/2000/svg">
<path d="M4.08781 13.991C3.40537 10.8063 3.06415 9.21389 3.91955 8.15577C4.77495 7.09766 6.40346 7.09766 9.66048 7.09766H14.5581C17.8151 7.09766 19.4437 7.09766 20.2991 8.15577C21.1545 9.21389 20.8132 10.8063 20.1308 13.991L19.7237 15.8907C19.2611 18.0493 19.0299 19.1286 18.2462 19.7622C17.4625 20.3957 16.3587 20.3957 14.151 20.3957H10.0676C7.85995 20.3957 6.75615 20.3957 5.97244 19.7622C5.18873 19.1286 4.95745 18.0493 4.4949 15.8907L4.08781 13.991Z" stroke="black" stroke-width="1.42479"/>
<path d="M3.56055 10.8965H20.6581" stroke="black" stroke-width="1.42479" stroke-linecap="round" stroke-linejoin="round"/>
<path d="M10.2095 13.7461H14.0089" stroke="black" stroke-width="1.42479" stroke-linecap="round" stroke-linejoin="round"/>
<path d="M17.8086 8.99703L14.959 3.29785" stroke="black" stroke-width="1.42479" stroke-linecap="round" stroke-linejoin="round"/>
<path d="M6.41018 8.99703L9.25977 3.29785" stroke="black" stroke-width="1.42479" stroke-linecap="round" stroke-linejoin="round"/>
</svg>
