<svg width="211" height="61" viewBox="0 0 211 61" fill="none" xmlns="http://www.w3.org/2000/svg">
<path d="M99.0958 40.8176V46.9893H73.3647V13.7572H98.4786V19.9288H81.008V27.1449H96.4372V33.1267H81.008V40.8176H99.0958ZM139.584 40.7226V53.8731H132.463V46.9893H109.011V53.8731H101.89L101.937 40.7226H103.266C105.26 40.6593 106.669 39.2035 107.492 36.355C108.315 33.5065 108.821 29.4395 109.011 24.1541L109.391 13.7572H134.932V40.7226H139.584ZM115.8 24.8662C115.641 28.8224 115.309 32.1456 114.803 34.8358C114.296 37.4944 113.521 39.4566 112.477 40.7226H127.336V20.0238H115.942L115.8 24.8662ZM168.697 34.3136C168.697 34.4085 168.649 35.0732 168.554 36.3075H149.232C149.58 37.89 150.403 39.1402 151.701 40.058C152.998 40.9758 154.613 41.4347 156.543 41.4347C157.872 41.4347 159.044 41.2449 160.056 40.8651C161.101 40.4536 162.066 39.8206 162.952 38.9661L166.893 43.2388C164.487 45.9923 160.974 47.3691 156.353 47.3691C153.473 47.3691 150.925 46.8152 148.71 45.7074C146.494 44.5681 144.785 43.0014 143.583 41.0075C142.38 39.0136 141.779 36.7506 141.779 34.2186C141.779 31.7183 142.364 29.4712 143.535 27.4773C144.738 25.4517 146.368 23.885 148.425 22.7773C150.514 21.6379 152.84 21.0682 155.404 21.0682C157.904 21.0682 160.167 21.6063 162.193 22.6823C164.218 23.7584 165.801 25.3093 166.94 27.3348C168.111 29.3288 168.697 31.655 168.697 34.3136ZM155.451 26.6702C153.774 26.6702 152.365 27.1449 151.226 28.0944C150.087 29.0439 149.39 30.3416 149.137 31.9873H161.718C161.465 30.3732 160.768 29.0914 159.629 28.1419C158.49 27.1608 157.097 26.6702 155.451 26.6702ZM199.298 46.9893V31.7025L191.654 44.5206H188.521L181.067 31.655V46.9893H174.374V21.448H182.112L190.277 36.2126L198.965 21.448H205.897L205.992 46.9893H199.298Z" fill="black"/>
<rect width="60.3321" height="60.3321" rx="30.1661" fill="white"/>
<rect x="19.7822" y="16.8145" width="17.8029" height="26.7044" rx="6.92335" fill="#232323"/>
<path d="M29.6731 55.3871C34.5635 55.3871 39.3441 53.9369 43.4103 51.22C47.4765 48.503 50.6458 44.6413 52.5172 40.1232C54.3887 35.605 54.8784 30.6334 53.9243 25.837C52.9702 21.0406 50.6153 16.6348 47.1573 13.1767C43.6992 9.7187 39.2934 7.36375 34.497 6.40968C29.7006 5.45561 24.7289 5.94527 20.2108 7.81674C15.6927 9.68822 11.831 12.8574 9.114 16.9237C6.39704 20.9899 4.94688 25.7704 4.94688 30.6608L10.362 30.6608C10.362 26.8415 11.4946 23.1078 13.6165 19.9321C15.7384 16.7564 18.7544 14.2813 22.2831 12.8197C25.8117 11.358 29.6946 10.9756 33.4406 11.7207C37.1866 12.4659 40.6275 14.3051 43.3282 17.0058C46.0289 19.7065 47.8681 23.1474 48.6132 26.8934C49.3584 30.6394 48.9759 34.5222 47.5143 38.0509C46.0527 41.5795 43.5775 44.5955 40.4018 46.7175C37.2261 48.8394 33.4925 49.972 29.6731 49.972L29.6731 55.3871Z" fill="#232323"/>
<rect x="25.7158" y="34.6172" width="5.9343" height="20.7701" fill="#232323"/>
<rect x="25.7158" y="20.7705" width="5.9343" height="5.9343" rx="2.96715" fill="#FA0606" fill-opacity="0.85"/>
<rect x="25.7158" y="34.6172" width="5.9343" height="5.9343" rx="2.96715" fill="#FA0606" fill-opacity="0.85"/>
<rect x="25.7158" y="27.6934" width="5.9343" height="5.9343" rx="2.96715" fill="#70FF00"/>
</svg>
